<svg xmlns="http://www.w3.org/2000/svg" width="68.531" height="28.828" viewBox="0 0 68.531 28.828">
  <path id="Pfad_10" data-name="Pfad 10" d="M5.946,32.889H.914V13.148H2.131L3.79,15.065a8.852,8.852,0,0,1,5.972-2.3,8.523,8.523,0,0,1,3.41.691,8.829,8.829,0,0,1,2.8,1.9,8.988,8.988,0,0,1,1.889,2.82,8.634,8.634,0,0,1,.691,3.438V32.889H13.522V21.609a3.7,3.7,0,0,0-.295-1.465,3.8,3.8,0,0,0-2.009-2.018,3.629,3.629,0,0,0-1.456-.295,3.808,3.808,0,0,0-1.493.295,3.751,3.751,0,0,0-2.028,2.018,3.7,3.7,0,0,0-.295,1.465ZM41.207,22.844a10.63,10.63,0,0,1-.793,4.12,10.305,10.305,0,0,1-2.157,3.3,10.089,10.089,0,0,1-3.2,2.193,10.013,10.013,0,0,1-7.852,0,10.1,10.1,0,0,1-5.373-5.493,10.63,10.63,0,0,1-.793-4.12,10.8,10.8,0,0,1,.793-4.166A10.2,10.2,0,0,1,24,15.369a10.072,10.072,0,0,1,3.207-2.184,9.767,9.767,0,0,1,3.917-.793,10.337,10.337,0,0,1,3.935.747,9.509,9.509,0,0,1,3.2,2.12,10.043,10.043,0,0,1,2.157,3.3A11.163,11.163,0,0,1,41.207,22.844Zm-5.069,0a5.86,5.86,0,0,0-.4-2.2,5.232,5.232,0,0,0-1.078-1.7,4.661,4.661,0,0,0-1.594-1.088,5.193,5.193,0,0,0-3.889,0,4.567,4.567,0,0,0-1.585,1.088,5.189,5.189,0,0,0-1.06,1.7,5.984,5.984,0,0,0-.387,2.2,5.7,5.7,0,0,0,.387,2.12,5.321,5.321,0,0,0,1.06,1.7,4.958,4.958,0,0,0,1.585,1.134,4.644,4.644,0,0,0,1.945.415,4.927,4.927,0,0,0,1.945-.387,4.84,4.84,0,0,0,1.594-1.088,5.1,5.1,0,0,0,1.078-1.7A5.879,5.879,0,0,0,36.138,22.844ZM49.022,32.889,41.5,13.148h5.732l4.313,12.313,4.295-12.313h5.751l-7.52,19.741Zm20.423-25.1a3.217,3.217,0,0,1-.267,1.309,3.361,3.361,0,0,1-.728,1.06,3.525,3.525,0,0,1-1.078.719,3.383,3.383,0,0,1-2.636,0,3.376,3.376,0,0,1-1.788-1.779,3.315,3.315,0,0,1,0-2.608A3.351,3.351,0,0,1,64.736,4.7a3.383,3.383,0,0,1,2.636,0,3.525,3.525,0,0,1,1.078.719,3.333,3.333,0,0,1,.728,1.069A3.237,3.237,0,0,1,69.445,7.784Zm-.866,25.1H63.51V13.148h5.069Z" transform="translate(-0.914 -4.43)" fill="#fff"/>
</svg>
